PathFileType	4	(X/Y/Z)	c:/Users/goper/Files/vsCode/490R/osim_files/C06/C06_Fast_04.trc
DataRate	CameraRate	NumFrames	NumMarkers	Units                	OrigDataRate	OrigDataStartFrame	OrigNumFrames
250.00	250.00	4	36	mm	250.0	2236	3577
                Frame#	Time	LPSIS			LASIS			LTH1			LTH2			LTH3			LTH4			LLFE			LMFE			LSH1			LSH2			LSH3			LSH4			LLMAL			LMMAL			LCAL			LMTP5			LTOE			LMTP1			RPSIS			RASIS			RTH1			RTH2			RTH3			RTH4			RLFE			RMFE			RSH1			RSH2			RSH3			RSH4			RLMAL			RMMAL			RCAL			RMTP1			RTOE			RMTP5		
		X1	Y1	Z1	X2	Y2	Z2	X3	Y3	Z3	X4	Y4	Z4	X5	Y5	Z5	X6	Y6	Z6	X7	Y7	Z7	X8	Y8	Z8	X9	Y9	Z9	X10	Y10	Z10	X11	Y11	Z11	X12	Y12	Z12	X13	Y13	Z13	X14	Y14	Z14	X15	Y15	Z15	X16	Y16	Z16	X17	Y17	Z17	X18	Y18	Z18	X19	Y19	Z19	X20	Y20	Z20	X21	Y21	Z21	X22	Y22	Z22	X23	Y23	Z23	X24	Y24	Z24	X25	Y25	Z25	X26	Y26	Z26	X27	Y27	Z27	X28	Y28	Z28	X29	Y29	Z29	X30	Y30	Z30	X31	Y31	Z31	X32	Y32	Z32	X33	Y33	Z33	X34	Y34	Z34	X35	Y35	Z35	X36	Y36	Z36

2236	8.94000	-829.44366	963.50311	189.52882	-1013.66473	956.40674	271.10828	-1014.21179	752.88635	351.09579	-1045.52063	698.07324	346.21426	-1075.75647	784.95001	319.39713	-1099.01624	727.47369	318.25003	-1157.16931	474.46588	272.03494	-1138.70129	459.94629	157.75395	-1110.21899	357.98517	299.21228	-1119.33862	314.75378	293.73108	-1171.74475	367.38602	281.45569	-1170.46167	322.21863	278.13757	-1134.05591	84.91506	235.51761	-1136.59668	107.55469	158.93988	-1067.27246	66.25172	190.43884	-1245.99548	31.44390	251.58682	-1293.61084	54.15094	180.73207	-1263.02307	36.98093	138.29822	-824.16553	959.62250	119.98808	-999.07489	925.97174	35.64490	-869.49390	740.50763	-26.80401	-871.73206	677.58246	-22.53617	-945.53998	736.26355	-24.00256	-936.71747	673.84601	-20.78828	-812.06049	424.79355	6.51364	-861.63684	408.80429	102.41471	-718.08282	416.75967	0.05138	-681.53259	384.97217	2.75435	-750.91693	362.72287	-0.51860	-709.63696	341.59198	0.19280	-503.97586	210.70718	53.42809	-541.23041	212.86784	128.03897	-469.23294	267.15701	99.60529	-504.21954	69.14042	153.36206	-517.33484	46.13165	103.26269	-472.62408	78.30276	42.59417
2237	8.94400	-835.52527	964.64423	189.21613	-1019.84863	957.66241	271.69913	-1019.48969	753.75793	351.68018	-1050.40869	698.86395	346.69760	-1081.29529	785.44983	319.82843	-1104.18005	727.75415	318.74014	-1160.10791	474.09427	272.43365	-1141.39087	459.72473	158.05788	-1112.23523	357.95520	299.04044	-1121.12549	314.60980	293.57932	-1173.97534	366.91296	281.70654	-1172.50317	321.81314	278.35870	-1134.23840	84.98582	235.44374	-1136.94067	107.53102	158.92081	-1067.34814	66.31777	190.42949	-1246.04944	31.34843	251.61850	-1294.21643	53.65611	180.72784	-1263.06836	36.76562	138.29240	-830.28357	960.23651	119.48654	-1006.17432	927.11536	36.18059	-877.32098	740.30060	-26.99228	-880.14215	677.44403	-22.79460	-953.18951	736.92212	-23.90892	-945.19556	674.42114	-20.72399	-823.82806	424.05603	5.60880	-873.46283	408.30359	101.80501	-729.84729	416.77042	-1.10198	-693.41107	385.15140	1.41302	-762.21136	362.52621	-1.50032	-721.53687	341.40860	-1.76652	-513.86780	213.31497	52.69836	-551.05707	214.30165	127.26125	-482.39975	271.15894	99.09843	-509.60336	71.70122	152.77007	-522.35077	48.47552	102.38734	-478.54401	82.21026	42.39751
2238	8.94800	-841.65466	965.77637	188.96852	-1025.91565	958.87048	272.26724	-1024.55798	754.69946	352.07977	-1055.15466	699.53735	347.10513	-1086.72729	785.78790	320.30176	-1108.76404	727.71844	319.34384	-1162.91528	473.72195	272.72781	-1143.77759	459.44318	158.37386	-1114.12390	357.90912	298.85678	-1122.76099	314.56180	293.44907	-1176.06458	366.46381	282.03940	-1174.33252	321.40543	278.56601	-1134.39661	85.06521	235.33781	-1137.18372	107.57028	158.85924	-1067.41138	66.40021	190.40141	-1246.12439	31.31025	251.64734	-1294.29529	53.48558	180.71269	-1263.09619	36.60339	138.21790	-836.34119	960.84766	119.03791	-1012.57806	927.99689	36.67350	-885.04956	740.18066	-27.22445	-888.61267	677.33698	-23.02729	-961.10675	737.60907	-23.82908	-953.66376	675.06427	-20.75287	-835.67737	423.44516	4.78996	-885.31348	407.94943	101.35602	-741.68561	416.76273	-2.25209	-704.96729	385.43372	0.42321	-773.67395	362.33243	-2.50185	-732.88202	341.37845	-2.53216	-523.98260	215.82802	51.89531	-561.13690	216.16212	126.56880	-495.55862	274.36749	98.47972	-515.32776	73.26582	151.33124	-527.82861	50.60470	101.82640	-485.15475	86.09254	41.89855
2239	8.95200	-847.69940	966.94897	188.74701	-1031.90662	960.15625	272.63049	-1029.54944	755.58545	352.44128	-1059.51672	700.10614	347.44830	-1092.10498	786.04938	320.84445	-1113.50818	727.62933	320.09195	-1165.58154	473.43033	273.04752	-1145.95605	459.26404	158.66476	-1115.89075	357.88196	298.64230	-1124.37341	314.51865	293.35010	-1177.89233	366.01929	282.28275	-1175.77673	320.83591	278.67078	-1134.50623	85.16430	235.22412	-1137.40540	107.58742	158.81755	-1067.42737	66.49402	190.38452	-1246.13892	31.28355	251.66035	-1294.40149	53.30139	180.68427	-1263.84229	36.82254	138.79602	-842.35284	961.53357	118.59391	-1018.67047	928.88226	37.17361	-892.67468	740.16418	-27.43187	-897.03058	677.30396	-23.25989	-968.85980	738.40656	-23.73546	-962.09949	675.75433	-20.79522	-847.51044	422.86731	3.82034	-897.05359	407.75018	101.12505	-753.72754	416.94287	-3.48033	-716.80212	385.63867	-0.66691	-785.17590	362.09882	-3.40693	-744.32495	341.43271	-3.41823	-534.45300	218.39186	51.14562	-571.43903	218.05702	125.95334	-507.80426	277.40997	98.50508	-521.44489	74.72737	149.81078	-535.30756	53.33270	100.73940	-492.53458	89.63491	41.38634
